<svg xmlns="http://www.w3.org/2000/svg" width="285" height="200"><g stroke="#4c4c4c"><path d="m 175.75142,591.26153 127.48274,63.40412 -6.74509,-44.51778 z" fill="none" stroke-width="5" transform="scale(-.92313 .92313) rotate(64.32 394.733 -42.978)"/><path d="m 134.28571,35.535713 c 0,1.676579 -1.35913,3.035715 -3.03571,3.035715 -1.67658,0 -3.03571,-1.359136 -3.03571,-3.035715 0,-1.676579 1.35913,-3.035714 3.03571,-3.035714 1.67658,0 3.03571,1.359135 3.03571,3.035714 z" transform="matrix(-.5302 1.10268 1.10268 .5302 249.715 -24.554)" fill="#e36a5c" stroke-width="2"/><path transform="matrix(-.5302 1.10268 1.10268 .5302 283.879 1.019)" d="m 134.28571,35.535713 c 0,1.676579 -1.35913,3.035715 -3.03571,3.035715 -1.67658,0 -3.03571,-1.359136 -3.03571,-3.035715 0,-1.676579 1.35913,-3.035714 3.03571,-3.035714 1.67658,0 3.03571,1.359135 3.03571,3.035714 z" fill="#e36a5c" stroke-width="2"/><path d="m 134.28571,35.535713 c 0,1.676579 -1.35913,3.035715 -3.03571,3.035715 -1.67658,0 -3.03571,-1.359136 -3.03571,-3.035715 0,-1.676579 1.35913,-3.035714 3.03571,-3.035714 1.67658,0 3.03571,1.359135 3.03571,3.035714 z" transform="matrix(-.5302 1.10268 1.10268 .5302 281.257 -130.475)" fill="#e36a5c" stroke-width="2"/></g><path transform="scale(1.54257) rotate(64.32 117.73 90.185)" d="m 20.982143,150.08929 68.035714,34.19642 -3.839286,-25.625 -64.553571,-10.625 z" fill="#b2e5e8"/><g stroke="#4c4c4c"><path d="m 175.75142,591.26153 127.48274,63.40412 -6.74509,-44.51778 z" fill="none" stroke-width="5" transform="scale(.92313) rotate(64.32 548.61 201.293)"/><path d="m 134.28571,35.535713 c 0,1.676579 -1.35913,3.035715 -3.03571,3.035715 -1.67658,0 -3.03571,-1.359136 -3.03571,-3.035715 0,-1.676579 1.35913,-3.035714 3.03571,-3.035714 1.67658,0 3.03571,1.359135 3.03571,3.035714 z" transform="scale(1.22353) rotate(64.32 30.009 11.966)" fill="#e36a5c" stroke-width="2"/><path transform="scale(1.22353) rotate(64.32 -.572 .213)" d="m 134.28571,35.535713 c 0,1.676579 -1.35913,3.035715 -3.03571,3.035715 -1.67658,0 -3.03571,-1.359136 -3.03571,-3.035715 0,-1.676579 1.35913,-3.035714 3.03571,-3.035714 1.67658,0 3.03571,1.359135 3.03571,3.035714 z" fill="#e36a5c" stroke-width="2"/><path d="m 134.28571,35.535713 c 0,1.676579 -1.35913,3.035715 -3.03571,3.035715 -1.67658,0 -3.03571,-1.359136 -3.03571,-3.035715 0,-1.676579 1.35913,-3.035714 3.03571,-3.035714 1.67658,0 3.03571,1.359135 3.03571,3.035714 z" transform="matrix(.5302 1.10268 -1.10268 .5302 2.46 -130.715)" fill="#e36a5c" stroke-width="2"/></g><path d="M 27.564036,924.78153 234.88332,924.54986" fill="none" stroke="#e36a5c" stroke-width="2.392" stroke-dasharray="9.56625165,9.56625165" transform="translate(13.517 -892.34)"/><text style="line-height:125%" x="3.987" y="1077.628" transform="rotate(-.058 -885214.895 -13857.138)" font-size="28.878" font-weight="400" letter-spacing="0" word-spacing="0" font-family="Sans"><tspan x="3.987" y="1077.628" style="-inkscape-font-specification:Sans Bold" font-size="16.616" font-weight="700" fill="#e36a5c">A</tspan></text><path d="m 58.645715,1031.5055 141.692475,-0.3153" fill="none" stroke="#e36a5c" stroke-width="2.308" stroke-dasharray="9.23067202,9.23067202" transform="translate(13.517 -892.34)"/><path d="m 23.28373,1058.2677 207.3193,-0.2315" fill="none" stroke="#e36a5c" stroke-width="2.392" stroke-dasharray="9.56625165,9.56625165" transform="translate(13.517 -892.34)"/><text transform="rotate(-.058 -885214.895 -13857.138)" y="916.594" x="11.542" style="line-height:125%" font-size="28.878" font-weight="400" letter-spacing="0" word-spacing="0" font-family="Sans"><tspan style="-inkscape-font-specification:Sans Bold" y="916.594" x="11.542" font-size="16.616" font-weight="700" fill="#e36a5c">B</tspan></text><text style="line-height:125%" x="54.201" y="1024.878" transform="rotate(-.058 -885214.895 -13857.138)" font-size="28.878" font-weight="400" letter-spacing="0" word-spacing="0" font-family="Sans"><tspan x="54.201" y="1024.878" style="-inkscape-font-specification:Sans Bold" font-size="16.616" font-weight="700" fill="#e36a5c">C</tspan></text><text transform="rotate(-.058 -885214.895 -13857.138)" y="1024.198" x="184.028" style="line-height:125%" font-size="28.878" font-weight="400" letter-spacing="0" word-spacing="0" font-family="Sans"><tspan style="-inkscape-font-specification:Sans Bold" y="1024.198" x="184.028" font-size="16.616" font-weight="700" fill="#e36a5c">C&apos;</tspan></text><text style="line-height:125%" x="228.917" y="1077.855" transform="rotate(-.058 -885214.895 -13857.138)" font-size="28.878" font-weight="400" letter-spacing="0" word-spacing="0" font-family="Sans"><tspan x="228.917" y="1077.855" style="-inkscape-font-specification:Sans Bold" font-size="16.616" font-weight="700" fill="#e36a5c">A&apos;</tspan></text><text transform="rotate(-.058 -885214.895 -13857.138)" y="916.287" x="230.664" style="line-height:125%" font-size="28.878" font-weight="400" letter-spacing="0" word-spacing="0" font-family="Sans"><tspan style="-inkscape-font-specification:Sans Bold" y="916.287" x="230.664" font-size="16.616" font-weight="700" fill="#e36a5c">B&apos;</tspan></text><g><path d="m 123.67825,914.5372 0.24794,173.0888" fill="none" stroke="#e36a5c" stroke-width="2.262" transform="matrix(1.0454 0 0 1.0454 11.977 -938.736)"/><text transform="rotate(-.136 -931210.177 -14473.324) scale(1.0454)" y="908.652" x="117.399" style="line-height:125%" font-size="27.624" font-weight="400" letter-spacing="0" word-spacing="0" font-family="Sans"><tspan style="-inkscape-font-specification:Sans Bold" y="908.652" x="117.399" font-size="15.895" font-weight="700" fill="#e36a5c">e</tspan></text></g></svg>