<svg xmlns="http://www.w3.org/2000/svg" width="367" height="400"><g stroke="#4c4c4c"><path d="m 175.75142,591.26153 127.48274,63.40412 -6.74509,-44.51778 z" fill="none" stroke-width="5" transform="scale(-1 1) rotate(-81.642 -318.317 669.347)"/><path d="m 134.28571,35.535713 c 0,1.676579 -1.35913,3.035715 -3.03571,3.035715 -1.67658,0 -3.03571,-1.359136 -3.03571,-3.035715 0,-1.676579 1.35913,-3.035714 3.03571,-3.035714 1.67658,0 3.03571,1.359135 3.03571,3.035714 z" transform="scale(-1.3254 1.3254) rotate(-81.642 -39.737 239.44)" fill="#e36a5c" stroke-width="2"/><path transform="scale(-1.3254 1.3254) rotate(-81.642 -23.297 218.43)" d="m 134.28571,35.535713 c 0,1.676579 -1.35913,3.035715 -3.03571,3.035715 -1.67658,0 -3.03571,-1.359136 -3.03571,-3.035715 0,-1.676579 1.35913,-3.035714 3.03571,-3.035714 1.67658,0 3.03571,1.359135 3.03571,3.035714 z" fill="#e36a5c" stroke-width="2"/><path d="m 134.28571,35.535713 c 0,1.676579 -1.35913,3.035715 -3.03571,3.035715 -1.67658,0 -3.03571,-1.359136 -3.03571,-3.035715 0,-1.676579 1.35913,-3.035714 3.03571,-3.035714 1.67658,0 3.03571,1.359135 3.03571,3.035714 z" transform="scale(-1.3254 1.3254) rotate(-81.642 -3.408 298.206)" fill="#e36a5c" stroke-width="2"/></g><text style="line-height:125%" x="174.462" y="888.12" font-size="31.283" font-weight="400" letter-spacing="0" word-spacing="0" font-family="Sans" transform="translate(13.517 -692.34)"><tspan x="174.462" y="888.12" style="-inkscape-font-specification:Sans Bold" font-size="18" font-weight="700" fill="#e36a5c">O</tspan></text><text y="867.51" x="319.324" style="line-height:125%" font-size="31.283" font-weight="400" letter-spacing="0" word-spacing="0" font-family="Sans" transform="translate(13.517 -692.34)"><tspan style="-inkscape-font-specification:Sans Bold" y="867.51" x="319.324" font-size="18" font-weight="700" fill="#e36a5c">A&apos;</tspan></text><text style="line-height:125%" x="281.56" y="746.121" font-size="31.283" font-weight="400" letter-spacing="0" word-spacing="0" font-family="Sans" transform="translate(13.517 -692.34)"><tspan x="281.56" y="746.121" style="-inkscape-font-specification:Sans Bold" font-size="18" font-weight="700" fill="#e36a5c">B&apos;</tspan></text><text y="739.453" x="203.444" style="line-height:125%" font-size="31.283" font-weight="400" letter-spacing="0" word-spacing="0" font-family="Sans" transform="translate(13.517 -692.34)"><tspan style="-inkscape-font-specification:Sans Bold" y="739.453" x="203.444" font-size="18" font-weight="700" fill="#e36a5c">C&apos;</tspan></text><text style="line-height:125%" x="12.957" y="871.87" font-size="31.283" font-weight="400" letter-spacing="0" word-spacing="0" font-family="Sans" transform="translate(13.517 -692.34)"><tspan x="12.957" y="871.87" style="-inkscape-font-specification:Sans Bold" font-size="18" font-weight="700" fill="#e36a5c">A</tspan></text><text y="738.295" x="124.22" style="line-height:125%" font-size="31.283" font-weight="400" letter-spacing="0" word-spacing="0" font-family="Sans" transform="translate(13.517 -692.34)"><tspan style="-inkscape-font-specification:Sans Bold" y="738.295" x="124.22" font-size="18" font-weight="700" fill="#e36a5c">C</tspan></text><text style="line-height:125%" x="48.196" y="741.202" font-size="31.283" font-weight="400" letter-spacing="0" word-spacing="0" font-family="Sans" transform="translate(13.517 -692.34)"><tspan x="48.196" y="741.202" style="-inkscape-font-specification:Sans Bold" font-size="18" font-weight="700" fill="#e36a5c">B</tspan></text><g fill="none" stroke="#4c4c4c"><path d="m 225.89626,809.40544 0,282.43366" transform="translate(-95.94 -973.676) scale(1.23689)"/><path d="m 85.18452,951.07656 279.90824,0" transform="translate(-95.94 -973.676) scale(1.23689)"/><path d="m 345.70966,946.15702 0,4.93353" stroke-width=".611" transform="translate(-95.94 -973.676) scale(1.23689)"/><path d="m 325.69559,945.13664 0,6.32397" stroke-width=".577" transform="translate(-95.94 -973.676) scale(1.23689)"/><path d="m 305.64625,946.15702 0,4.93353" stroke-width=".611" transform="translate(-95.94 -973.676) scale(1.23689)"/><path d="m 285.62433,945.13664 0,6.32397" stroke-width=".577" transform="translate(-95.94 -973.676) scale(1.23689)"/><path d="m 265.58284,946.15702 0,4.93353" stroke-width=".611" transform="translate(-95.94 -973.676) scale(1.23689)"/><path d="m 245.55308,945.13664 0,6.32397" stroke-width=".577" transform="translate(-95.94 -973.676) scale(1.23689)"/><path d="m 205.4877,946.15702 0,4.93353" stroke-width=".611" transform="translate(-95.94 -973.676) scale(1.23689)"/><path d="m 185.44621,945.13664 0,6.32397" stroke-width=".577" transform="translate(-95.94 -973.676) scale(1.23689)"/><path d="m 165.42429,946.15702 0,4.93353" stroke-width=".611" transform="translate(-95.94 -973.676) scale(1.23689)"/><path d="m 145.37495,945.13664 0,6.32397" stroke-width=".577" transform="translate(-95.94 -973.676) scale(1.23689)"/><path d="m 125.36087,946.15702 0,4.93353" stroke-width=".611" transform="translate(-95.94 -973.676) scale(1.23689)"/><path d="m 105.3037,945.13664 0,6.32397" stroke-width=".577" transform="translate(-95.94 -973.676) scale(1.23689)"/><path d="m 230.82238,1071.4061 -4.93353,0" stroke-width=".611" transform="translate(-95.94 -973.676) scale(1.23689)"/><path d="m 231.84276,1051.3921 -6.32397,0" stroke-width=".577" transform="translate(-95.94 -973.676) scale(1.23689)"/><path d="m 230.82238,1031.3427 -4.93353,0" stroke-width=".611" transform="translate(-95.94 -973.676) scale(1.23689)"/><path d="m 231.84276,1011.3208 -6.32397,0" stroke-width=".577" transform="translate(-95.94 -973.676) scale(1.23689)"/><path d="m 230.82238,991.27931 -4.93353,0" stroke-width=".611" transform="translate(-95.94 -973.676) scale(1.23689)"/><path d="m 231.84276,971.24955 -6.32397,0" stroke-width=".577" transform="translate(-95.94 -973.676) scale(1.23689)"/><path d="m 230.82238,931.18417 -4.93353,0" stroke-width=".611" transform="translate(-95.94 -973.676) scale(1.23689)"/><path d="m 231.84276,911.14268 -6.32397,0" stroke-width=".577" transform="translate(-95.94 -973.676) scale(1.23689)"/><path d="m 230.82238,891.12076 -4.93353,0" stroke-width=".611" transform="translate(-95.94 -973.676) scale(1.23689)"/><path d="m 231.84276,871.07142 -6.32397,0" stroke-width=".577" transform="translate(-95.94 -973.676) scale(1.23689)"/><path d="m 230.82238,851.05734 -4.93353,0" stroke-width=".611" transform="translate(-95.94 -973.676) scale(1.23689)"/><path d="m 231.84276,831.00017 -6.32397,0" stroke-width=".577" transform="translate(-95.94 -973.676) scale(1.23689)"/></g><g stroke="#4c4c4c"><path d="m 175.75142,591.26153 127.48274,63.40412 -6.74509,-44.51778 z" fill="none" stroke-width="5" transform="rotate(-81.967 -131.099 453.149)"/><path d="m 134.28571,35.535713 c 0,1.676579 -1.35913,3.035715 -3.03571,3.035715 -1.67658,0 -3.03571,-1.359136 -3.03571,-3.035715 0,-1.676579 1.35913,-3.035714 3.03571,-3.035714 1.67658,0 3.03571,1.359135 3.03571,3.035714 z" transform="scale(1.3254) rotate(-81.967 100.11 76.623)" fill="#e36a5c" stroke-width="2"/><path transform="scale(1.3254) rotate(-81.967 116.437 55.636)" d="m 134.28571,35.535713 c 0,1.676579 -1.35913,3.035715 -3.03571,3.035715 -1.67658,0 -3.03571,-1.359136 -3.03571,-3.035715 0,-1.676579 1.35913,-3.035714 3.03571,-3.035714 1.67658,0 3.03571,1.359135 3.03571,3.035714 z" fill="#e36a5c" stroke-width="2"/><path d="m 134.28571,35.535713 c 0,1.676579 -1.35913,3.035715 -3.03571,3.035715 -1.67658,0 -3.03571,-1.359136 -3.03571,-3.035715 0,-1.676579 1.35913,-3.035714 3.03571,-3.035714 1.67658,0 3.03571,1.359135 3.03571,3.035714 z" transform="scale(1.3254) rotate(-81.967 136.486 135.095)" fill="#e36a5c" stroke-width="2"/></g><path d="m 442.72772,676.48891 -48.6254,-7.65869 -0.75655,-1.45825 c -0.89479,-1.72471 -2.16525,-2.77827 -3.37709,-2.80054 -0.48877,-0.009 -0.98389,-0.51714 -1.1229,-1.15248 -0.68999,-3.15367 -4.93153,-32.76189 -4.72317,-32.97025 0.27539,-0.27539 107.98812,53.12454 107.98812,53.53646 0,0.1475 -0.17046,0.24439 -0.37881,0.21531 -0.20834,-0.0291 -22.26023,-3.49928 -49.0042,-7.71156 z" fill="#b2e5e8" transform="rotate(98.033 504.457 229.182)"/><text y="954.012" x="315.1" style="line-height:125%" font-size="31.283" font-weight="400" letter-spacing="0" word-spacing="0" font-family="Sans" transform="translate(13.517 -692.34)"><tspan style="-inkscape-font-specification:Sans Bold" y="954.012" x="315.1" font-size="18" font-weight="700" fill="#e36a5c">A&apos;&apos;</tspan></text><path d="M 74.769681,751.54307 266.83875,1043.7896" fill="none" stroke="#e36a5c" stroke-width="1.701" stroke-dasharray="6.80311882,6.80311882" transform="translate(13.517 -692.34)"/><text y="1071.917" x="272.339" style="line-height:125%" font-size="31.283" font-weight="400" letter-spacing="0" word-spacing="0" font-family="Sans" transform="translate(13.517 -692.34)"><tspan style="-inkscape-font-specification:Sans Bold" y="1071.917" x="272.339" font-size="18" font-weight="700" fill="#e36a5c">B&apos;&apos;</tspan></text><text style="line-height:125%" x="206.363" y="1073.295" font-size="31.283" font-weight="400" letter-spacing="0" word-spacing="0" font-family="Sans" transform="translate(13.517 -692.34)"><tspan x="206.363" y="1073.295" style="-inkscape-font-specification:Sans Bold" font-size="18" font-weight="700" fill="#e36a5c">C&apos;&apos;</tspan></text><text style="line-height:125%" x="156.161" y="720.224" font-size="31.283" font-weight="400" letter-spacing="0" word-spacing="0" font-family="Sans" transform="translate(13.517 -692.34)"><tspan x="156.161" y="720.224" style="-inkscape-font-specification:Sans Bold" font-size="18" font-weight="700" fill="#e36a5c">e</tspan></text><text y="907.941" x="334.207" style="line-height:125%" font-size="31.283" font-weight="400" letter-spacing="0" word-spacing="0" font-family="Sans" transform="translate(13.517 -692.34)"><tspan style="-inkscape-font-specification:Sans Bold" y="907.941" x="334.207" font-size="18" font-weight="700" fill="#e36a5c">e&apos;</tspan></text><g stroke="#4c4c4c"><path d="m 175.75142,591.26153 127.48274,63.40412 -6.74509,-44.51778 z" fill="none" stroke-width="5" transform="rotate(98.358 400.39 480.801)"/><path transform="scale(-1.3254) rotate(-81.642 -219.519 84.14)" d="m 134.28571,35.535713 c 0,1.676579 -1.35913,3.035715 -3.03571,3.035715 -1.67658,0 -3.03571,-1.359136 -3.03571,-3.035715 0,-1.676579 1.35913,-3.035714 3.03571,-3.035714 1.67658,0 3.03571,1.359135 3.03571,3.035714 z" fill="#e36a5c" stroke-width="2"/><path d="m 134.28571,35.535713 c 0,1.676579 -1.35913,3.035715 -3.03571,3.035715 -1.67658,0 -3.03571,-1.359136 -3.03571,-3.035715 0,-1.676579 1.35913,-3.035714 3.03571,-3.035714 1.67658,0 3.03571,1.359135 3.03571,3.035714 z" transform="scale(-1.3254) rotate(-81.642 -203.079 63.13)" fill="#e36a5c" stroke-width="2"/><path transform="scale(-1.3254) rotate(-81.642 -183.19 142.908)" d="m 134.28571,35.535713 c 0,1.676579 -1.35913,3.035715 -3.03571,3.035715 -1.67658,0 -3.03571,-1.359136 -3.03571,-3.035715 0,-1.676579 1.35913,-3.035714 3.03571,-3.035714 1.67658,0 3.03571,1.359135 3.03571,3.035714 z" fill="#e36a5c" stroke-width="2"/></g><path d="m 134.28571,35.535713 a 3.0357144,3.0357144 0 1 1 -6.07142,0 3.0357144,3.0357144 0 1 1 6.07142,0 z" transform="translate(-23.6 147.084) scale(1.5756)" fill="#e36a5c" stroke="#4c4c4c" stroke-width="2"/><path d="M 118.22399,749.52276 223.41995,1044.2947" fill="none" stroke="#e36a5c" stroke-width="1.701" stroke-dasharray="6.80311882,6.80311882" transform="translate(13.517 -692.34)"/><path d="M 41.957473,860.13447 301.84944,933.80032" fill="none" stroke="#e36a5c" stroke-width="1.701" stroke-dasharray="6.80311882,6.80311882" transform="translate(13.517 -692.34)"/></svg>